<svg width="20" height="20" viewBox="0 0 20 20" fill="none" xmlns="http://www.w3.org/2000/svg">
<path d="M10.0526 0.833374C11.8918 0.833374 13.3828 2.25333 13.3828 4.00494C13.3828 5.25757 12.6203 6.34059 11.513 6.85598L16.3142 6.44592C17.3998 6.36712 18.347 7.14141 18.4297 8.17534C18.5038 9.10183 17.8567 9.93088 16.9024 10.1467L16.7641 10.1733L16.6226 10.1894L12.9296 10.5084L12.9298 11.3614L12.9348 11.4669L12.9482 11.5656L12.968 11.651L13.0125 11.7778L15.1955 16.5766C15.6053 17.5196 15.149 18.6015 14.1683 19.0127C13.2969 19.3781 12.286 19.096 11.7426 18.3449L11.6608 18.2224L11.5766 18.0643L10.0473 15.025L8.52918 18.0654C8.12678 18.9313 7.12101 19.3638 6.19122 19.113L6.05898 19.0725L5.92822 19.0225C5.04134 18.6487 4.58027 17.7221 4.82402 16.8198L4.86591 16.6848L7.09276 11.7791C7.12009 11.7128 7.14078 11.6443 7.15403 11.5826L7.16823 11.4963L7.17541 11.362L7.1747 10.5084L3.48364 10.19C2.49071 10.1157 1.72761 9.35302 1.67003 8.43223L1.66666 8.29967L1.67269 8.17117C1.74911 7.24484 2.52251 6.52048 3.50028 6.44705L3.6413 6.44104L3.79925 6.447L8.59498 6.85637C7.48717 6.34124 6.72378 5.25824 6.72247 4.00494C6.72247 2.25333 8.21342 0.833374 10.0526 0.833374ZM16.5015 7.88732L16.43 7.8873L11.6764 8.29408L11.3934 8.3122L11.1098 8.31824H8.99364L8.70998 8.3122L8.42701 8.29408L3.67112 7.8873C3.42097 7.8705 3.20389 8.05002 3.18625 8.28826C3.17057 8.50003 3.31777 8.68691 3.52636 8.73762L3.60726 8.75004L7.45771 9.0809C8.11788 9.13502 8.63303 9.63472 8.68879 10.2523L8.69379 10.3694V11.3616C8.69445 11.6201 8.65427 11.8769 8.57492 12.1235L8.50808 12.3063L6.32083 17.115C6.24086 17.2549 6.24834 17.4253 6.34028 17.5584C6.43222 17.6914 6.59366 17.7654 6.7602 17.7508C6.89898 17.7386 7.02247 17.6666 7.09732 17.5579L7.13613 17.4885L9.22237 13.1617C9.36113 12.8415 9.68892 12.6326 10.0526 12.6326C10.3799 12.6326 10.6782 12.8018 10.8357 13.0691L10.8829 13.1617L12.975 17.5015C13.0817 17.717 13.3516 17.8093 13.5779 17.7077C13.779 17.6173 13.8779 17.4042 13.8225 17.2066L13.7944 17.1335L11.5994 12.308C11.4999 12.0669 11.4392 11.8134 11.419 11.5558L11.4114 11.362V10.3698C11.409 9.7391 11.8851 9.20593 12.5256 9.09748L12.6475 9.0822L16.4916 8.75004C16.6129 8.74278 16.7261 8.68938 16.8057 8.60184C16.8852 8.5143 16.9245 8.39998 16.9147 8.28459C16.9062 8.17051 16.8503 8.06437 16.7593 7.98976C16.6865 7.93008 16.596 7.89453 16.5015 7.88732ZM10.0526 2.27945C9.052 2.27945 8.24085 3.05198 8.24085 4.00494C8.24085 4.9579 9.052 5.73043 10.0526 5.73043C11.0532 5.73043 11.8644 4.9579 11.8644 4.00494C11.8644 3.05198 11.0532 2.27945 10.0526 2.27945Z" fill="#646464"/>
</svg>
