<svg width="18" height="18" viewBox="0 0 18 18" fill="none" xmlns="http://www.w3.org/2000/svg">
<path d="M8.99999 0.666626C13.6024 0.666626 17.3333 4.39759 17.3333 8.99996C17.3333 13.6023 13.6024 17.3333 8.99999 17.3333C4.39762 17.3333 0.666656 13.6023 0.666656 8.99996C0.666656 4.39759 4.39762 0.666626 8.99999 0.666626ZM8.99999 2.33329C5.31809 2.33329 2.33332 5.31806 2.33332 8.99996C2.33332 12.6819 5.31809 15.6666 8.99999 15.6666C12.6819 15.6666 15.6667 12.6819 15.6667 8.99996C15.6667 5.31806 12.6819 2.33329 8.99999 2.33329ZM8.99999 3.99996C11.7614 3.99996 14 6.23854 14 8.99996C14 11.7614 11.7614 14 8.99999 14V3.99996Z" fill="#646464"/>
</svg>
