<svg xmlns="http://www.w3.org/2000/svg" xmlns:xlink="http://www.w3.org/1999/xlink" width="88" height="33" viewBox="0 0 88 33">
    <defs>
        <path id="a" d="M18.797.003c5.009.071 8.745 1.261 11.835 3.457l.5-2.58h9.254l-2.69 12.647L48.577.88h9.19l5.002 9.311L69.957.881h10.69L65.52 18.81l-2.25 11.199H54.14l2.563-12.52-4.689-8.116-6.126 6.732L54.14 30.01H43.138l-6.441-11.576-2.189 11.576h-9.252l1.313-6.669c-2.501 5.725-7.19 7.613-13.565 7.613-5.373 0-10.31-1.634-12.999-4.587v-.013l5.059-5.97c2.187 2.14 5.564 3.271 9.127 3.271 2.5 0 4-.942 4.063-2.202.063-2.138-3.626-2.453-7.001-3.396-3.814-1.07-7.877-3.649-6.814-9.06.8-4.09 4.388-8.849 13.451-8.994h.907zm11.399 5.47l-3.69 4.341C22.568 7.613 19.943 7.11 17.13 7.11c-1.562 0-3.313.377-3.564 1.887-.187 1.32 1.063 1.635 3.69 2.202 4.813 1.006 9.69 2.328 10.313 7.297l2.628-13.022zm54.173-4.471c.76 0 1.339.281 1.737.844.398.563.496 1.242.294 2.037-.202.795-.645 1.474-1.33 2.038-.684.565-1.406.847-2.167.847-.768 0-1.352-.282-1.751-.844-.399-.563-.497-1.244-.295-2.041.202-.795.646-1.474 1.331-2.037.686-.563 1.413-.844 2.18-.844zm-.105.397c-.649 0-1.264.243-1.848.727-.582.484-.961 1.07-1.136 1.757-.174.687-.094 1.273.243 1.759.336.486.829.729 1.477.729.649 0 1.264-.243 1.844-.729.581-.486.959-1.072 1.133-1.759.174-.684.094-1.27-.24-1.755-.333-.486-.825-.729-1.473-.729zm.048.845c.7 0 .964.334.794 1.001-.123.486-.356.777-.7.874.276.074.37.285.282.633l-.182.716h-.654l.151-.596c.077-.304-.036-.455-.339-.455h-.833l-.267 1.051h-.654l.82-3.224h1.582zm-.203.58h-.873l-.258 1.013h.834c.345 0 .562-.17.648-.513.085-.334-.032-.5-.35-.5z"/>
    </defs>
    <g fill="none" fill-rule="evenodd" transform="translate(0 1.031)">
        <mask id="b" fill="#fff">
            <use xlink:href="#a"/>
        </mask>
        <g fill="#F35C58" fill-rule="nonzero" mask="url(#b)">
            <path d="M0-.871h86.603v33H0z"/>
        </g>
    </g>
</svg>
